<mxfile host="app.diagrams.net" modified="2023-08-13T12:00:47.287Z" agent="Mozilla/5.0 (Macintosh; Intel Mac OS X 10_15_7) AppleWebKit/605.1.15 (KHTML, like Gecko) Version/16.6 Safari/605.1.15" etag="QGfkskySATf079JHcY0n" version="21.6.8" type="github">
  <diagram name="Page-1" id="74e2e168-ea6b-b213-b513-2b3c1d86103e">
    <mxGraphModel dx="702" dy="486" grid="1" gridSize="10" guides="1" tooltips="1" connect="1" arrows="1" fold="1" page="1" pageScale="1" pageWidth="1100" pageHeight="850" background="none" math="0" shadow="0">
      <root>
        <mxCell id="0" />
        <mxCell id="1" parent="0" />
        <mxCell id="gXzDlIQ9lHYVgcgvqdBY-1" value="Fastapi" style="rounded=1;whiteSpace=wrap;html=1;" vertex="1" parent="1">
          <mxGeometry x="110" y="280" width="120" height="60" as="geometry" />
        </mxCell>
        <mxCell id="gXzDlIQ9lHYVgcgvqdBY-32" value="" style="edgeStyle=orthogonalEdgeStyle;rounded=0;orthogonalLoop=1;jettySize=auto;html=1;" edge="1" parent="1" source="gXzDlIQ9lHYVgcgvqdBY-2" target="gXzDlIQ9lHYVgcgvqdBY-15">
          <mxGeometry relative="1" as="geometry" />
        </mxCell>
        <mxCell id="gXzDlIQ9lHYVgcgvqdBY-2" value="Worker" style="rounded=1;whiteSpace=wrap;html=1;" vertex="1" parent="1">
          <mxGeometry x="430" y="280" width="120" height="60" as="geometry" />
        </mxCell>
        <mxCell id="gXzDlIQ9lHYVgcgvqdBY-15" value="Redis" style="shape=cylinder3;whiteSpace=wrap;html=1;boundedLbl=1;backgroundOutline=1;size=15;" vertex="1" parent="1">
          <mxGeometry x="340" y="280" width="60" height="60" as="geometry" />
        </mxCell>
        <mxCell id="gXzDlIQ9lHYVgcgvqdBY-21" value="" style="curved=1;endArrow=classic;html=1;rounded=0;exitX=0.75;exitY=1;exitDx=0;exitDy=0;entryX=0.75;entryY=0;entryDx=0;entryDy=0;" edge="1" parent="1" source="gXzDlIQ9lHYVgcgvqdBY-2" target="gXzDlIQ9lHYVgcgvqdBY-2">
          <mxGeometry width="50" height="50" relative="1" as="geometry">
            <mxPoint x="650" y="335" as="sourcePoint" />
            <mxPoint x="700" y="285" as="targetPoint" />
            <Array as="points">
              <mxPoint x="560" y="360" />
              <mxPoint x="610" y="350" />
              <mxPoint x="630" y="320" />
              <mxPoint x="630" y="300" />
              <mxPoint x="610" y="270" />
              <mxPoint x="570" y="260" />
            </Array>
          </mxGeometry>
        </mxCell>
        <mxCell id="gXzDlIQ9lHYVgcgvqdBY-22" value="LLM Response" style="text;html=1;strokeColor=none;fillColor=none;align=center;verticalAlign=middle;whiteSpace=wrap;rounded=0;" vertex="1" parent="1">
          <mxGeometry x="560" y="290" width="60" height="40" as="geometry" />
        </mxCell>
        <mxCell id="gXzDlIQ9lHYVgcgvqdBY-24" value="" style="endArrow=classic;html=1;rounded=0;exitX=1;exitY=0.25;exitDx=0;exitDy=0;entryX=0;entryY=0;entryDx=0;entryDy=15;entryPerimeter=0;" edge="1" parent="1" source="gXzDlIQ9lHYVgcgvqdBY-1" target="gXzDlIQ9lHYVgcgvqdBY-15">
          <mxGeometry relative="1" as="geometry">
            <mxPoint x="580" y="430" as="sourcePoint" />
            <mxPoint x="320" y="290" as="targetPoint" />
          </mxGeometry>
        </mxCell>
        <mxCell id="gXzDlIQ9lHYVgcgvqdBY-25" value="Send Task" style="edgeLabel;resizable=0;html=1;align=center;verticalAlign=middle;" connectable="0" vertex="1" parent="gXzDlIQ9lHYVgcgvqdBY-24">
          <mxGeometry relative="1" as="geometry" />
        </mxCell>
        <mxCell id="gXzDlIQ9lHYVgcgvqdBY-26" value="" style="endArrow=classic;html=1;rounded=0;exitX=0;exitY=1;exitDx=0;exitDy=-15;entryX=1;entryY=0.75;entryDx=0;entryDy=0;exitPerimeter=0;" edge="1" parent="1" source="gXzDlIQ9lHYVgcgvqdBY-15" target="gXzDlIQ9lHYVgcgvqdBY-1">
          <mxGeometry relative="1" as="geometry">
            <mxPoint x="240" y="305" as="sourcePoint" />
            <mxPoint x="336" y="306" as="targetPoint" />
          </mxGeometry>
        </mxCell>
        <mxCell id="gXzDlIQ9lHYVgcgvqdBY-27" value="Async Result&lt;br&gt;get" style="edgeLabel;resizable=0;html=1;align=center;verticalAlign=middle;" connectable="0" vertex="1" parent="gXzDlIQ9lHYVgcgvqdBY-26">
          <mxGeometry relative="1" as="geometry" />
        </mxCell>
        <mxCell id="gXzDlIQ9lHYVgcgvqdBY-28" value="" style="endArrow=classic;html=1;rounded=0;exitX=0;exitY=0.75;exitDx=0;exitDy=0;entryX=1;entryY=1;entryDx=0;entryDy=-15;entryPerimeter=0;" edge="1" parent="1" source="gXzDlIQ9lHYVgcgvqdBY-2" target="gXzDlIQ9lHYVgcgvqdBY-15">
          <mxGeometry relative="1" as="geometry">
            <mxPoint x="340" y="335" as="sourcePoint" />
            <mxPoint x="240" y="335" as="targetPoint" />
          </mxGeometry>
        </mxCell>
        <mxCell id="gXzDlIQ9lHYVgcgvqdBY-30" value="" style="endArrow=classic;html=1;rounded=0;exitX=1;exitY=0;exitDx=0;exitDy=15;entryX=0;entryY=0.25;entryDx=0;entryDy=0;exitPerimeter=0;" edge="1" parent="1" source="gXzDlIQ9lHYVgcgvqdBY-15" target="gXzDlIQ9lHYVgcgvqdBY-2">
          <mxGeometry relative="1" as="geometry">
            <mxPoint x="240" y="305" as="sourcePoint" />
            <mxPoint x="340" y="305" as="targetPoint" />
          </mxGeometry>
        </mxCell>
      </root>
    </mxGraphModel>
  </diagram>
</mxfile>
